HIERARCHY
ROOT pelvis
{
  OFFSET 0 100 0
  CHANNELS 6 Xposition Yposition Zposition Zrotation Xrotation Yrotation
  JOINT pelvis_right_femur
  {
    OFFSET -10.78128 -3.44521 -0.5502486
    CHANNELS 3 Zrotation Xrotation Yrotation
    JOINT right_femur_tibia
    {
      OFFSET -0.8047443 -44.0398 -0.1307829
      CHANNELS 3 Zrotation Xrotation Yrotation
      JOINT right_tibia_foot
      {
        OFFSET 3.006224 -47.83518 -5
        CHANNELS 3 Zrotation Xrotation Yrotation
        End Site
        {
          OFFSET 0 -5 15
        }
      }
    }
  }
  JOINT pelvis_left_femur
  {
    OFFSET 10.78128 -3.44521 -0.5502486
    CHANNELS 3 Zrotation Xrotation Yrotation
    JOINT left_femur_tibia
    {
      OFFSET 0.8047443 -44.0398 -0.1307829
      CHANNELS 3 Zrotation Xrotation Yrotation
      JOINT left_tibia_foot
      {
        OFFSET -4.370144 -48.10324 -4.275266
        CHANNELS 3 Zrotation Xrotation Yrotation
        End Site
        {
          OFFSET 0 -5 15
        }
      }
    }
  }
  JOINT pelvis_spine1
  {
    OFFSET 0 6.468898 -3.129235
    CHANNELS 3 Zrotation Xrotation Yrotation
    JOINT spine1
    {
      OFFSET 0 23.15396 4.99043
      CHANNELS 3 Zrotation Xrotation Yrotation
      JOINT spine2
      {
        OFFSET 0 20.79997 -5.064912
        CHANNELS 3 Zrotation Xrotation Yrotation
        JOINT neck
        {
          OFFSET 0 14.38658 9.616178
          CHANNELS 3 Zrotation Xrotation Yrotation
          End Site
          {
            OFFSET 0 20 0
          }
        }
      }
      JOINT right_manubrium
      {
        OFFSET -5.722621 16.35077 3.967754
        CHANNELS 3 Zrotation Xrotation Yrotation
        JOINT right_clavicle
        {
          OFFSET -13.16364 1.694482 -4.693211
          CHANNELS 3 Zrotation Xrotation Yrotation
          JOINT right_humerus
          {
            OFFSET -28.5034 -0.3100689 -2.792744
            CHANNELS 3 Zrotation Xrotation Yrotation
            JOINT right_radius
            {
              OFFSET -25.15693 0.02248979 -1.271978
              CHANNELS 3 Zrotation Xrotation Yrotation
              End Site
              {
                OFFSET -15 0 0
              }
            }
          }
        }
      }
      JOINT left_manubrium
      {
        OFFSET 5.722621 16.35077 3.967754
        CHANNELS 3 Zrotation Xrotation Yrotation
        JOINT left_clavicle
        {
          OFFSET 13.16364 1.694482 -4.693211
          CHANNELS 3 Zrotation Xrotation Yrotation
          JOINT left_humerus
          {
            OFFSET 29.39168 -1.063119 -2.237045
            CHANNELS 3 Zrotation Xrotation Yrotation
            JOINT left_radius
            {
              OFFSET 24.59957 -0.9528479 0.9047498
              CHANNELS 3 Zrotation Xrotation Yrotation
              End Site
              {
                OFFSET 15 -0 -0
              }
            }
          }
        }
      }
    }
  }
}
MOTION
Frames: 9
Frame Time: 0.0416666666667
54.57064 135.317 279.7654 2.19335 -5.151053 4.725658 0.375887 7.257479 3.725746 -0 5.838304 -0 2.974959 -13.93315 -1.676949 -2.43703 -7.887823 -5.695534 -0 15.45186 -0 -7.750123 -10.74531 15.51708 -1.027486 -1.709035 6.908595 -0.3891607 8.854152 -4.626926 2.273571 21.61243 4.509689 1.491852 -15.48677 6.64782 0.2875092 -18.93068 9.95381 84.51036 22.02266 -12.19132 -0 0 20.09807 -21.70567 11.00298 11.36616 5.924308 -16.96852 -3.604183 -88.65443 23.97064 16.55378 0 0 -16.7575 -1.861382 6.937796 14.95623
55.87104 134.4425 286.753 2.204145 -5.287128 4.707479 0.296464 6.922802 3.611889 -0 6.428383 -0 2.788817 -14.39769 -1.818813 -2.425562 -7.900703 -5.797596 -0 14.13445 -0 -7.600633 -11.24341 15.5974 -1.075058 -1.532193 6.801234 -0.4325159 8.652831 -4.557775 2.343143 21.773 4.441127 1.388318 -15.36613 6.739451 0.04782778 -18.92783 9.810597 84.53315 21.80457 -11.91665 -0 0 20.28011 -21.59506 10.85393 11.29242 5.968614 -16.84992 -3.550053 -88.61718 24.18218 16.37286 0 0 -16.60801 -1.844899 7.079228 14.87474
57.15486 133.468 293.6723 2.207326 -5.419263 4.715921 0.2457284 6.398771 3.492143 -0 6.807672 -0 2.527264 -14.81653 -2.003708 -2.416717 -7.713493 -5.900142 -0 13.03705 -0 -7.45275 -11.73522 15.66811 -1.125485 -1.352831 6.658715 -0.4482259 8.457888 -4.522316 2.413361 21.94657 4.374121 1.292329 -15.2545 6.830272 -0.1786625 -18.86729 9.667975 84.60813 21.63512 -11.74501 -0 0 20.31805 -21.4395 10.71564 11.18105 6.018456 -16.7893 -3.501947 -88.51399 24.39812 16.05661 0 0 -16.55078 -1.780421 7.257198 14.73087
58.40967 132.3977 300.5198 2.201131 -5.547247 4.740892 0.225872 5.686397 3.367673 -0 6.961429 -0 2.191524 -15.1891 -2.231763 -2.408313 -7.326522 -6.001359 -0 12.17405 -0 -7.309552 -12.21605 15.72842 -1.176867 -1.171696 6.481903 -0.4358176 8.270986 -4.52074 2.484122 22.13164 4.308586 1.204354 -15.15266 6.919541 -0.3906221 -18.74973 9.527494 84.73403 21.51372 -11.67839 -0 0 20.21101 -21.23958 10.58915 11.03224 6.074139 -16.78812 -3.460087 -88.34469 24.61529 15.6055 0 0 -16.58866 -1.667203 7.470513 14.52436
59.6223 131.2364 307.2931 2.184437 -5.671102 4.772182 0.2368879 4.798113 3.239997 -0 6.890749 -0 1.785929 -15.51538 -2.50033 -2.398662 -6.751594 -6.099996 -0 11.54613 -0 -7.172701 -12.68163 15.7786 -1.227654 -0.9897854 6.273458 -0.3963522 8.093555 -4.55145 2.555099 22.32629 4.244555 1.124583 -15.06129 7.006571 -0.5873015 -18.57916 9.390665 84.90742 21.43774 -11.71286 -0 0 19.9657 -20.99847 10.47467 10.84868 6.135341 -16.84461 -3.424429 -88.11351 24.83006 15.02836 0 0 -16.71801 -1.506764 7.716491 14.25801
60.77971 129.9891 313.9902 2.156702 -5.791065 4.800011 0.2770509 3.7572 3.110749 -0 6.610266 -0 1.317343 -15.79545 -2.804055 -2.386544 -6.011354 -6.195272 -0 11.14249 -0 -7.042512 -13.12777 15.82016 -1.276624 -0.8082863 6.037627 -0.3322083 7.926915 -4.611181 2.62572 22.52835 4.182265 1.05305 -14.98109 7.090709 -0.7685032 -18.36262 9.259006 85.12293 21.40291 -11.83905 -0 0 19.59542 -20.72187 10.37161 10.63553 6.201178 -16.9542 -3.39472 -87.82895 25.03837 14.34198 0 0 -16.92897 -1.302535 7.991322 13.93717
61.86989 128.6611 320.6101 2.117944 -5.907589 4.815497 0.3433074 2.598247 2.981352 -0 6.146684 -0 0.7947448 -16.02904 -3.134723 -2.371166 -5.139689 -6.286758 -0 10.94245 -0 -6.917936 -13.54979 15.85627 -1.322838 -0.6285244 5.780204 -0.2469671 7.77246 -4.694971 2.69511 22.73549 4.122268 0.9897769 -14.91302 7.171315 -0.9345587 -18.11014 9.134138 85.37317 21.40348 -12.0421 -0 0 19.11947 -20.41812 10.27844 10.40058 6.270239 -17.10972 -3.370549 -87.5041 25.23579 13.57127 0 0 -17.20525 -1.05966 8.290378 13.56954
62.88272 127.2583 327.1519 2.068742 -6.021363 4.81105 0.4315451 1.368249 2.852668 -0 5.538072 -0 0.2289636 -16.21507 -3.480973 -2.352127 -4.18274 -6.374247 -0 10.91644 -0 -6.796478 -13.94199 15.8921 -1.365618 -0.4519362 5.508573 -0.1453794 7.631838 -4.796029 2.762024 22.94536 4.065559 0.934892 -14.85846 7.247721 -1.086321 -17.83494 9.017905 85.64849 21.43253 -12.30127 -0 0 18.56304 -20.0985 10.19269 10.15462 6.340587 -17.30136 -3.351389 -87.15712 25.41769 12.75008 0 0 -17.52351 -0.7849315 8.608451 13.16509
63.81096 125.7871 333.6145 2.010241 -6.133309 4.780711 0.5368134 0.1268503 2.724695 -0 4.832986 -0 -0.367552 -16.35147 -3.828213 -2.329376 -3.199115 -6.457624 -0 11.02696 -0 -6.674196 -14.29735 15.93503 -1.40452 -0.2800462 5.231694 -0.03329617 7.50708 -4.905724 2.824812 23.15558 4.013633 0.8887094 -14.81932 7.31922 -1.225146 -17.5534 8.91244 85.93675 21.48214 -12.58991 -0 0 17.95687 -19.77733 10.11088 9.911494 6.409775 -17.51685 -3.336637 -86.8113 25.57947 11.92132 0 0 -17.85327 -0.4867143 8.93998 12.7359
